<svg width="24" height="28" viewBox="0 0 24 28" fill="none" xmlns="http://www.w3.org/2000/svg">
<path d="M13.8733 4.25876V0.258759H0.973312V27.7411H13.8733V23.7411C11.2307 23.7411 8.69637 22.7148 6.82783 20.8879C4.95926 19.0611 3.90951 16.5835 3.90951 13.9999C3.90951 11.4164 4.95926 8.93867 6.82783 7.11189C8.69637 5.28506 11.2307 4.25876 13.8733 4.25876Z" fill="#2C3131"/>
<path d="M13.8739 4.25876V23.7411C16.5165 23.7411 19.0508 22.7148 20.9194 20.8879C22.788 19.0611 23.8377 16.5835 23.8377 13.9999C23.8377 11.4164 22.788 8.93867 20.9194 7.11189C19.0508 5.28506 16.5165 4.25876 13.8739 4.25876Z" fill="#2C3131"/>
</svg>
