<svg width="21" height="21" viewBox="0 0 21 21" fill="none" xmlns="http://www.w3.org/2000/svg">
<path fill-rule="evenodd" clip-rule="evenodd" d="M14.0625 10.5C14.0625 12.4675 12.4675 14.0625 10.5 14.0625C8.53249 14.0625 6.9375 12.4675 6.9375 10.5C6.9375 8.53249 8.53249 6.9375 10.5 6.9375C12.4675 6.9375 14.0625 8.53249 14.0625 10.5Z" stroke-width="1.95" stroke-linecap="round" stroke-linejoin="round"/>
<path d="M20 11.475C20.5385 11.475 20.975 11.0385 20.975 10.5C20.975 9.9615 20.5385 9.52498 20 9.52498V11.475ZM17.625 9.52498C17.0865 9.52498 16.65 9.9615 16.65 10.5C16.65 11.0385 17.0865 11.475 17.625 11.475V9.52498ZM3.375 11.475C3.91348 11.475 4.35 11.0385 4.35 10.5C4.35 9.96153 3.91348 9.52501 3.375 9.52501V11.475ZM1 9.52501C0.461522 9.52501 0.025 9.96153 0.025 10.5C0.025 11.0385 0.461522 11.475 1 11.475V9.52501ZM11.475 1C11.475 0.461522 11.0385 0.025 10.5 0.025C9.96156 0.025 9.52504 0.461522 9.52504 1H11.475ZM9.52504 3.375C9.52504 3.91348 9.96156 4.35 10.5 4.35C11.0385 4.35 11.475 3.91348 11.475 3.375H9.52504ZM11.475 17.625C11.475 17.0865 11.0385 16.65 10.5 16.65C9.96156 16.65 9.52504 17.0865 9.52504 17.625H11.475ZM9.52504 20C9.52504 20.5385 9.96156 20.975 10.5 20.975C11.0385 20.975 11.475 20.5385 11.475 20H9.52504ZM17.9072 4.47159C18.2879 4.09083 18.2879 3.4735 17.9072 3.09274C17.5264 2.71198 16.9091 2.71198 16.5283 3.09274L17.9072 4.47159ZM14.8482 4.77288C14.4674 5.15364 14.4674 5.77098 14.8482 6.15174C15.2289 6.5325 15.8463 6.5325 16.227 6.15174L14.8482 4.77288ZM6.15174 16.2271C6.53251 15.8464 6.53251 15.2291 6.15174 14.8483C5.77098 14.4675 5.15365 14.4675 4.77289 14.8483L6.15174 16.2271ZM3.09274 16.5284C2.71198 16.9092 2.71198 17.5265 3.09274 17.9073C3.4735 18.2881 4.09084 18.2881 4.4716 17.9073L3.09274 16.5284ZM4.4716 3.09274C4.09084 2.71198 3.4735 2.71198 3.09274 3.09274C2.71198 3.4735 2.71198 4.09083 3.09274 4.47159L4.4716 3.09274ZM4.77289 6.15174C5.15365 6.5325 5.77098 6.5325 6.15174 6.15174C6.53251 5.77098 6.53251 5.15364 6.15174 4.77288L4.77289 6.15174ZM16.2286 14.8496C15.8478 14.4689 15.2305 14.4689 14.8497 14.8496C14.469 15.2304 14.469 15.8477 14.8497 16.2285L16.2286 14.8496ZM16.5285 17.9073C16.9093 18.288 17.5266 18.288 17.9074 17.9073C18.2881 17.5265 18.2881 16.9092 17.9074 16.5284L16.5285 17.9073ZM20 9.52498H17.625V11.475H20V9.52498ZM3.375 9.52501H1V11.475H3.375V9.52501ZM9.52504 1V3.375H11.475V1H9.52504ZM9.52504 17.625V20H11.475V17.625H9.52504ZM16.5283 3.09274L14.8482 4.77288L16.227 6.15174L17.9072 4.47159L16.5283 3.09274ZM4.77289 14.8483L3.09274 16.5284L4.4716 17.9073L6.15174 16.2271L4.77289 14.8483ZM3.09274 4.47159L4.77289 6.15174L6.15174 4.77288L4.4716 3.09274L3.09274 4.47159ZM14.8497 16.2285L16.5285 17.9073L17.9074 16.5284L16.2286 14.8496L14.8497 16.2285Z"/>
</svg>
